<?xml version="1.0" encoding="UTF-8"?>
<svg id="Layer_1" data-name="Layer 1" xmlns="http://www.w3.org/2000/svg" viewBox="0 0 564.33 655.53">
  <defs>
    <style>
      .cls-1 {
        fill: #fdc901;
      }

      .cls-1, .cls-2, .cls-3, .cls-4 {
        stroke-width: 0px;
      }

      .cls-1, .cls-3 {
        fill-rule: evenodd;
      }

      .cls-2 {
        fill: #000;
      }

      .cls-3 {
        fill: #eb673a;
      }

      .cls-4 {
        fill: #fff;
      }
    </style>
  </defs>
  <g>
    <path class="cls-2" d="M77.56,55.27h409.06c40.72,0,73.78,33.06,73.78,73.78v409.06c0,40.72-33.06,73.78-73.78,73.78H77.57c-40.72,0-73.78-33.06-73.78-73.78V129.06c0-40.72,33.06-73.78,73.78-73.78Z"/>
    <path class="cls-4" d="M486.63,59.06c38.66,0,70,31.34,70,70v409.06c0,38.66-31.34,70-70,70H77.56c-38.66,0-70-31.34-70-70V129.06c0-38.66,31.34-70,70-70h409.06M486.63,51.49H77.56C34.8,51.49,0,86.29,0,129.06v409.06c0,42.77,34.8,77.56,77.56,77.56h409.06c42.77,0,77.56-34.8,77.56-77.56V129.06c0-42.77-34.8-77.56-77.56-77.56h0Z"/>
  </g>
  <g>
    <polygon class="cls-1" points="282.09 97.66 336.84 266.77 515.08 266.45 370.71 370.57 426.09 539.49 316.78 459.98 316.78 459.98 282.09 434.74 281.97 434.81 282.03 434.81 282.09 434.74 193.48 370.57 193.48 370.7 193.55 370.7 193.48 370.57 49.11 266.45 227.35 266.77 282.09 97.66"/>
    <polygon class="cls-3" points="274.75 442 192.79 455.63 186.27 377.95 130.89 546.68 274.75 442"/>
  </g>
</svg>